<mxfile host="app.diagrams.net" modified="2022-09-19T12:06:24.355Z" agent="5.0 (Windows NT 10.0; Win64; x64) AppleWebKit/537.36 (KHTML, like Gecko) Chrome/104.0.5112.102 Safari/537.36 Edg/104.0.1293.70" etag="Bw2QicCz8-hAw0CXTqFp" version="20.3.1" type="github">
  <diagram id="C5RBs43oDa-KdzZeNtuy" name="Page-1">
    <mxGraphModel dx="677" dy="363" grid="1" gridSize="10" guides="1" tooltips="1" connect="1" arrows="1" fold="1" page="1" pageScale="1" pageWidth="827" pageHeight="1169" math="0" shadow="0">
      <root>
        <mxCell id="WIyWlLk6GJQsqaUBKTNV-0" />
        <mxCell id="WIyWlLk6GJQsqaUBKTNV-1" parent="WIyWlLk6GJQsqaUBKTNV-0" />
        <mxCell id="7S5ToUFaWnlVdSLbU037-24" value="" style="edgeStyle=orthogonalEdgeStyle;rounded=0;orthogonalLoop=1;jettySize=auto;html=1;strokeWidth=2;fontSize=14;" parent="WIyWlLk6GJQsqaUBKTNV-1" source="WIyWlLk6GJQsqaUBKTNV-3" target="7S5ToUFaWnlVdSLbU037-18" edge="1">
          <mxGeometry relative="1" as="geometry" />
        </mxCell>
        <mxCell id="WIyWlLk6GJQsqaUBKTNV-3" value="&lt;span style=&quot;font-size:10.5pt;mso-bidi-font-size:10.0pt;&lt;br/&gt;font-family:宋体;mso-ascii-font-family:&amp;quot;Times New Roman&amp;quot;;mso-hansi-font-family:&lt;br/&gt;&amp;quot;Times New Roman&amp;quot;;mso-bidi-font-family:&amp;quot;Times New Roman&amp;quot;;mso-font-kerning:1.0pt;&lt;br/&gt;mso-ansi-language:EN-US;mso-fareast-language:ZH-CN;mso-bidi-language:AR-SA&quot;&gt;仿&lt;/span&gt;人眼相机" style="rounded=1;whiteSpace=wrap;html=1;fontSize=14;glass=0;strokeWidth=2;shadow=0;" parent="WIyWlLk6GJQsqaUBKTNV-1" vertex="1">
          <mxGeometry x="175" y="180" width="120" height="40" as="geometry" />
        </mxCell>
        <mxCell id="7S5ToUFaWnlVdSLbU037-30" value="" style="edgeStyle=orthogonalEdgeStyle;rounded=0;orthogonalLoop=1;jettySize=auto;html=1;strokeWidth=2;fontSize=14;" parent="WIyWlLk6GJQsqaUBKTNV-1" source="WIyWlLk6GJQsqaUBKTNV-7" edge="1">
          <mxGeometry relative="1" as="geometry">
            <mxPoint x="235" y="580" as="targetPoint" />
          </mxGeometry>
        </mxCell>
        <mxCell id="WIyWlLk6GJQsqaUBKTNV-7" value="CNN深度学习训练模型" style="rounded=1;whiteSpace=wrap;html=1;fontSize=14;glass=0;strokeWidth=2;shadow=0;" parent="WIyWlLk6GJQsqaUBKTNV-1" vertex="1">
          <mxGeometry x="157.5" y="490" width="155" height="40" as="geometry" />
        </mxCell>
        <mxCell id="7S5ToUFaWnlVdSLbU037-1" value="" style="edgeStyle=orthogonalEdgeStyle;rounded=0;orthogonalLoop=1;jettySize=auto;html=1;strokeWidth=2;fontSize=14;" parent="WIyWlLk6GJQsqaUBKTNV-1" source="7S5ToUFaWnlVdSLbU037-0" target="WIyWlLk6GJQsqaUBKTNV-3" edge="1">
          <mxGeometry relative="1" as="geometry" />
        </mxCell>
        <mxCell id="7S5ToUFaWnlVdSLbU037-0" value="VR一体机镜面" style="rounded=1;whiteSpace=wrap;html=1;fontSize=14;glass=0;strokeWidth=2;shadow=0;" parent="WIyWlLk6GJQsqaUBKTNV-1" vertex="1">
          <mxGeometry x="175" y="60" width="120" height="40" as="geometry" />
        </mxCell>
        <mxCell id="7S5ToUFaWnlVdSLbU037-4" value="分类模型S1" style="rhombus;whiteSpace=wrap;html=1;shadow=0;fontFamily=Helvetica;fontSize=17;align=center;strokeWidth=2;spacing=6;spacingTop=-4;fontStyle=1" parent="WIyWlLk6GJQsqaUBKTNV-1" vertex="1">
          <mxGeometry x="140" y="670" width="190" height="100" as="geometry" />
        </mxCell>
        <mxCell id="7S5ToUFaWnlVdSLbU037-7" value="" style="edgeStyle=orthogonalEdgeStyle;rounded=0;orthogonalLoop=1;jettySize=auto;html=1;strokeWidth=2;fontSize=14;" parent="WIyWlLk6GJQsqaUBKTNV-1" source="7S5ToUFaWnlVdSLbU037-6" edge="1">
          <mxGeometry relative="1" as="geometry">
            <mxPoint x="235" y="135" as="targetPoint" />
          </mxGeometry>
        </mxCell>
        <mxCell id="7S5ToUFaWnlVdSLbU037-6" value="实时录制" style="text;html=1;align=center;verticalAlign=middle;resizable=0;points=[];autosize=1;strokeColor=none;fillColor=none;strokeWidth=2;fontSize=14;" parent="WIyWlLk6GJQsqaUBKTNV-1" vertex="1">
          <mxGeometry x="75" y="120" width="80" height="30" as="geometry" />
        </mxCell>
        <mxCell id="7S5ToUFaWnlVdSLbU037-35" value="" style="edgeStyle=orthogonalEdgeStyle;rounded=0;orthogonalLoop=1;jettySize=auto;html=1;strokeWidth=2;fontSize=14;" parent="WIyWlLk6GJQsqaUBKTNV-1" source="7S5ToUFaWnlVdSLbU037-8" target="7S5ToUFaWnlVdSLbU037-22" edge="1">
          <mxGeometry relative="1" as="geometry" />
        </mxCell>
        <mxCell id="7S5ToUFaWnlVdSLbU037-8" value="&lt;span style=&quot;font-size:10.5pt;mso-bidi-font-size:10.0pt;&lt;br/&gt;font-family:宋体;mso-ascii-font-family:&amp;quot;Times New Roman&amp;quot;;mso-hansi-font-family:&lt;br/&gt;&amp;quot;Times New Roman&amp;quot;;mso-bidi-font-family:&amp;quot;Times New Roman&amp;quot;;mso-font-kerning:1.0pt;&lt;br/&gt;mso-ansi-language:EN-US;mso-fareast-language:ZH-CN;mso-bidi-language:AR-SA&quot;&gt;仿&lt;/span&gt;人眼相机" style="rounded=1;whiteSpace=wrap;html=1;fontSize=14;glass=0;strokeWidth=2;shadow=0;" parent="WIyWlLk6GJQsqaUBKTNV-1" vertex="1">
          <mxGeometry x="530" y="270" width="120" height="40" as="geometry" />
        </mxCell>
        <mxCell id="7S5ToUFaWnlVdSLbU037-9" value="" style="edgeStyle=orthogonalEdgeStyle;rounded=0;orthogonalLoop=1;jettySize=auto;html=1;strokeWidth=2;fontSize=14;" parent="WIyWlLk6GJQsqaUBKTNV-1" source="7S5ToUFaWnlVdSLbU037-10" target="7S5ToUFaWnlVdSLbU037-8" edge="1">
          <mxGeometry relative="1" as="geometry" />
        </mxCell>
        <mxCell id="7S5ToUFaWnlVdSLbU037-10" value="VR一体机镜面" style="rounded=1;whiteSpace=wrap;html=1;fontSize=14;glass=0;strokeWidth=2;shadow=0;" parent="WIyWlLk6GJQsqaUBKTNV-1" vertex="1">
          <mxGeometry x="530" y="150" width="120" height="40" as="geometry" />
        </mxCell>
        <mxCell id="7S5ToUFaWnlVdSLbU037-11" value="" style="edgeStyle=orthogonalEdgeStyle;rounded=0;orthogonalLoop=1;jettySize=auto;html=1;strokeWidth=2;fontSize=14;" parent="WIyWlLk6GJQsqaUBKTNV-1" source="7S5ToUFaWnlVdSLbU037-12" edge="1">
          <mxGeometry relative="1" as="geometry">
            <mxPoint x="590" y="225" as="targetPoint" />
          </mxGeometry>
        </mxCell>
        <mxCell id="7S5ToUFaWnlVdSLbU037-12" value="实时录制" style="text;html=1;align=center;verticalAlign=middle;resizable=0;points=[];autosize=1;strokeColor=none;fillColor=none;strokeWidth=2;fontSize=14;" parent="WIyWlLk6GJQsqaUBKTNV-1" vertex="1">
          <mxGeometry x="670" y="210" width="80" height="30" as="geometry" />
        </mxCell>
        <mxCell id="7S5ToUFaWnlVdSLbU037-15" value="异常图像" style="rounded=1;whiteSpace=wrap;html=1;fontSize=14;glass=0;strokeWidth=2;shadow=0;" parent="WIyWlLk6GJQsqaUBKTNV-1" vertex="1">
          <mxGeometry x="470" y="610" width="80" height="60" as="geometry" />
        </mxCell>
        <mxCell id="7S5ToUFaWnlVdSLbU037-17" value="正常图像" style="rounded=1;whiteSpace=wrap;html=1;fontSize=14;glass=0;strokeWidth=2;shadow=0;" parent="WIyWlLk6GJQsqaUBKTNV-1" vertex="1">
          <mxGeometry x="640" y="610" width="80" height="60" as="geometry" />
        </mxCell>
        <mxCell id="7S5ToUFaWnlVdSLbU037-18" value="视频图像处理模块，主要用于拆帧存储" style="rounded=1;whiteSpace=wrap;html=1;fontSize=14;glass=0;strokeWidth=2;shadow=0;" parent="WIyWlLk6GJQsqaUBKTNV-1" vertex="1">
          <mxGeometry x="157.5" y="280" width="155" height="40" as="geometry" />
        </mxCell>
        <mxCell id="7S5ToUFaWnlVdSLbU037-19" value="异常图像" style="rounded=1;whiteSpace=wrap;html=1;fontSize=14;glass=0;strokeWidth=2;shadow=0;" parent="WIyWlLk6GJQsqaUBKTNV-1" vertex="1">
          <mxGeometry x="150" y="380" width="80" height="60" as="geometry" />
        </mxCell>
        <mxCell id="7S5ToUFaWnlVdSLbU037-20" value="正常图像" style="rounded=1;whiteSpace=wrap;html=1;fontSize=14;glass=0;strokeWidth=2;shadow=0;" parent="WIyWlLk6GJQsqaUBKTNV-1" vertex="1">
          <mxGeometry x="249" y="380" width="80" height="60" as="geometry" />
        </mxCell>
        <mxCell id="7S5ToUFaWnlVdSLbU037-21" value="分类模型S1" style="rhombus;whiteSpace=wrap;html=1;shadow=0;fontFamily=Helvetica;fontSize=17;align=center;strokeWidth=2;spacing=6;spacingTop=-4;fontStyle=1" parent="WIyWlLk6GJQsqaUBKTNV-1" vertex="1">
          <mxGeometry x="495" y="460" width="190" height="100" as="geometry" />
        </mxCell>
        <mxCell id="7S5ToUFaWnlVdSLbU037-36" value="" style="edgeStyle=orthogonalEdgeStyle;rounded=0;orthogonalLoop=1;jettySize=auto;html=1;strokeWidth=2;fontSize=14;" parent="WIyWlLk6GJQsqaUBKTNV-1" source="7S5ToUFaWnlVdSLbU037-22" target="7S5ToUFaWnlVdSLbU037-21" edge="1">
          <mxGeometry relative="1" as="geometry" />
        </mxCell>
        <mxCell id="7S5ToUFaWnlVdSLbU037-22" value="视频图像处理模块" style="rounded=1;whiteSpace=wrap;html=1;fontSize=14;glass=0;strokeWidth=2;shadow=0;" parent="WIyWlLk6GJQsqaUBKTNV-1" vertex="1">
          <mxGeometry x="530" y="370" width="120" height="40" as="geometry" />
        </mxCell>
        <mxCell id="7S5ToUFaWnlVdSLbU037-26" value="" style="endArrow=classic;html=1;rounded=0;exitX=0.5;exitY=1;exitDx=0;exitDy=0;entryX=0.5;entryY=0;entryDx=0;entryDy=0;strokeWidth=2;fontSize=14;" parent="WIyWlLk6GJQsqaUBKTNV-1" source="7S5ToUFaWnlVdSLbU037-18" target="7S5ToUFaWnlVdSLbU037-20" edge="1">
          <mxGeometry width="50" height="50" relative="1" as="geometry">
            <mxPoint x="240" y="330" as="sourcePoint" />
            <mxPoint x="440" y="370" as="targetPoint" />
          </mxGeometry>
        </mxCell>
        <mxCell id="7S5ToUFaWnlVdSLbU037-27" value="" style="endArrow=classic;html=1;rounded=0;exitX=0.5;exitY=1;exitDx=0;exitDy=0;entryX=0.5;entryY=0;entryDx=0;entryDy=0;strokeWidth=2;fontSize=14;" parent="WIyWlLk6GJQsqaUBKTNV-1" source="7S5ToUFaWnlVdSLbU037-18" target="7S5ToUFaWnlVdSLbU037-19" edge="1">
          <mxGeometry width="50" height="50" relative="1" as="geometry">
            <mxPoint x="245" y="330" as="sourcePoint" />
            <mxPoint x="299" y="390" as="targetPoint" />
          </mxGeometry>
        </mxCell>
        <mxCell id="7S5ToUFaWnlVdSLbU037-28" value="" style="endArrow=classic;html=1;rounded=0;exitX=0.5;exitY=1;exitDx=0;exitDy=0;entryX=0.5;entryY=0;entryDx=0;entryDy=0;strokeWidth=2;fontSize=14;" parent="WIyWlLk6GJQsqaUBKTNV-1" source="7S5ToUFaWnlVdSLbU037-19" target="WIyWlLk6GJQsqaUBKTNV-7" edge="1">
          <mxGeometry width="50" height="50" relative="1" as="geometry">
            <mxPoint x="245" y="330" as="sourcePoint" />
            <mxPoint x="200" y="390" as="targetPoint" />
          </mxGeometry>
        </mxCell>
        <mxCell id="7S5ToUFaWnlVdSLbU037-29" value="" style="endArrow=classic;html=1;rounded=0;exitX=0.5;exitY=1;exitDx=0;exitDy=0;entryX=0.5;entryY=0;entryDx=0;entryDy=0;strokeWidth=2;fontSize=14;" parent="WIyWlLk6GJQsqaUBKTNV-1" source="7S5ToUFaWnlVdSLbU037-20" target="WIyWlLk6GJQsqaUBKTNV-7" edge="1">
          <mxGeometry width="50" height="50" relative="1" as="geometry">
            <mxPoint x="200" y="450" as="sourcePoint" />
            <mxPoint x="245" y="500" as="targetPoint" />
          </mxGeometry>
        </mxCell>
        <mxCell id="7S5ToUFaWnlVdSLbU037-31" value="标记分类" style="text;html=1;align=center;verticalAlign=middle;resizable=0;points=[];autosize=1;strokeColor=none;fillColor=none;strokeWidth=2;fontSize=14;" parent="WIyWlLk6GJQsqaUBKTNV-1" vertex="1">
          <mxGeometry x="50" y="340" width="80" height="30" as="geometry" />
        </mxCell>
        <mxCell id="7S5ToUFaWnlVdSLbU037-33" value="训练纠正后产出" style="text;html=1;align=center;verticalAlign=middle;resizable=0;points=[];autosize=1;strokeColor=none;fillColor=none;strokeWidth=2;fontSize=14;" parent="WIyWlLk6GJQsqaUBKTNV-1" vertex="1">
          <mxGeometry x="37.5" y="625" width="120" height="30" as="geometry" />
        </mxCell>
        <mxCell id="7S5ToUFaWnlVdSLbU037-37" value="" style="endArrow=classic;html=1;rounded=0;exitX=0.5;exitY=1;exitDx=0;exitDy=0;entryX=0.5;entryY=0;entryDx=0;entryDy=0;strokeWidth=2;fontSize=14;" parent="WIyWlLk6GJQsqaUBKTNV-1" source="7S5ToUFaWnlVdSLbU037-21" target="7S5ToUFaWnlVdSLbU037-15" edge="1">
          <mxGeometry width="50" height="50" relative="1" as="geometry">
            <mxPoint x="390" y="630" as="sourcePoint" />
            <mxPoint x="440" y="580" as="targetPoint" />
          </mxGeometry>
        </mxCell>
        <mxCell id="7S5ToUFaWnlVdSLbU037-38" value="" style="endArrow=classic;html=1;rounded=0;exitX=0.5;exitY=1;exitDx=0;exitDy=0;entryX=0.5;entryY=0;entryDx=0;entryDy=0;strokeWidth=2;fontSize=14;" parent="WIyWlLk6GJQsqaUBKTNV-1" source="7S5ToUFaWnlVdSLbU037-21" target="7S5ToUFaWnlVdSLbU037-17" edge="1">
          <mxGeometry width="50" height="50" relative="1" as="geometry">
            <mxPoint x="600" y="570" as="sourcePoint" />
            <mxPoint x="520" y="630" as="targetPoint" />
          </mxGeometry>
        </mxCell>
        <mxCell id="6z4Tuc7xeSrhAQ4H4yoB-1" value="总线传输" style="text;html=1;strokeColor=none;fillColor=none;align=center;verticalAlign=middle;whiteSpace=wrap;rounded=0;fontSize=14;" vertex="1" parent="WIyWlLk6GJQsqaUBKTNV-1">
          <mxGeometry x="90" y="230" width="60" height="30" as="geometry" />
        </mxCell>
        <mxCell id="6z4Tuc7xeSrhAQ4H4yoB-4" value="" style="edgeStyle=orthogonalEdgeStyle;rounded=0;orthogonalLoop=1;jettySize=auto;html=1;strokeWidth=2;fontSize=14;" edge="1" parent="WIyWlLk6GJQsqaUBKTNV-1">
          <mxGeometry relative="1" as="geometry">
            <mxPoint x="235" y="244.86" as="targetPoint" />
            <mxPoint x="155" y="244.86" as="sourcePoint" />
            <Array as="points">
              <mxPoint x="215" y="244.86" />
              <mxPoint x="215" y="244.86" />
            </Array>
          </mxGeometry>
        </mxCell>
        <mxCell id="6z4Tuc7xeSrhAQ4H4yoB-6" value="" style="edgeStyle=orthogonalEdgeStyle;rounded=0;orthogonalLoop=1;jettySize=auto;html=1;strokeWidth=2;fontSize=14;" edge="1" parent="WIyWlLk6GJQsqaUBKTNV-1">
          <mxGeometry relative="1" as="geometry">
            <mxPoint x="210" y="354.8299999999999" as="targetPoint" />
            <mxPoint x="130" y="354.8299999999999" as="sourcePoint" />
            <Array as="points">
              <mxPoint x="190" y="354.83000000000004" />
              <mxPoint x="190" y="354.83000000000004" />
            </Array>
          </mxGeometry>
        </mxCell>
        <mxCell id="6z4Tuc7xeSrhAQ4H4yoB-10" value="" style="endArrow=none;dashed=1;html=1;rounded=0;fontSize=14;" edge="1" parent="WIyWlLk6GJQsqaUBKTNV-1">
          <mxGeometry width="50" height="50" relative="1" as="geometry">
            <mxPoint x="100" y="373" as="sourcePoint" />
            <mxPoint x="360" y="373" as="targetPoint" />
            <Array as="points">
              <mxPoint x="340" y="373" />
            </Array>
          </mxGeometry>
        </mxCell>
        <mxCell id="6z4Tuc7xeSrhAQ4H4yoB-13" value="" style="edgeStyle=orthogonalEdgeStyle;rounded=0;orthogonalLoop=1;jettySize=auto;html=1;strokeWidth=2;fontSize=14;" edge="1" parent="WIyWlLk6GJQsqaUBKTNV-1">
          <mxGeometry relative="1" as="geometry">
            <mxPoint x="235" y="640" as="targetPoint" />
            <mxPoint x="155" y="640" as="sourcePoint" />
            <Array as="points">
              <mxPoint x="215" y="640.0000000000001" />
              <mxPoint x="215" y="640.0000000000001" />
            </Array>
          </mxGeometry>
        </mxCell>
        <mxCell id="6z4Tuc7xeSrhAQ4H4yoB-15" value="" style="endArrow=none;dashed=1;html=1;rounded=0;fontSize=14;exitX=0.575;exitY=1.1;exitDx=0;exitDy=0;exitPerimeter=0;" edge="1" parent="WIyWlLk6GJQsqaUBKTNV-1">
          <mxGeometry width="50" height="50" relative="1" as="geometry">
            <mxPoint x="100.00000000000006" y="449.9999999999999" as="sourcePoint" />
            <mxPoint x="360" y="450" as="targetPoint" />
            <Array as="points" />
          </mxGeometry>
        </mxCell>
        <mxCell id="6z4Tuc7xeSrhAQ4H4yoB-17" value="训练集" style="text;html=1;align=center;verticalAlign=middle;resizable=0;points=[];autosize=1;strokeColor=none;fillColor=none;fontSize=12;" vertex="1" parent="WIyWlLk6GJQsqaUBKTNV-1">
          <mxGeometry x="92.5" y="395" width="60" height="30" as="geometry" />
        </mxCell>
        <mxCell id="6z4Tuc7xeSrhAQ4H4yoB-18" value="测试模型" style="rounded=1;whiteSpace=wrap;html=1;fontSize=14;glass=0;strokeWidth=2;shadow=0;" vertex="1" parent="WIyWlLk6GJQsqaUBKTNV-1">
          <mxGeometry x="193.75" y="580" width="82.5" height="40" as="geometry" />
        </mxCell>
        <mxCell id="6z4Tuc7xeSrhAQ4H4yoB-21" value="" style="edgeStyle=orthogonalEdgeStyle;rounded=0;orthogonalLoop=1;jettySize=auto;html=1;strokeWidth=2;fontSize=14;exitX=0.5;exitY=1;exitDx=0;exitDy=0;entryX=0.5;entryY=0;entryDx=0;entryDy=0;" edge="1" parent="WIyWlLk6GJQsqaUBKTNV-1" source="6z4Tuc7xeSrhAQ4H4yoB-18" target="7S5ToUFaWnlVdSLbU037-4">
          <mxGeometry relative="1" as="geometry">
            <mxPoint x="245" y="569.78" as="targetPoint" />
            <mxPoint x="165" y="569.78" as="sourcePoint" />
            <Array as="points" />
          </mxGeometry>
        </mxCell>
        <mxCell id="6z4Tuc7xeSrhAQ4H4yoB-23" value="总线传输" style="text;html=1;strokeColor=none;fillColor=none;align=center;verticalAlign=middle;whiteSpace=wrap;rounded=0;fontSize=14;" vertex="1" parent="WIyWlLk6GJQsqaUBKTNV-1">
          <mxGeometry x="680" y="320" width="60" height="30" as="geometry" />
        </mxCell>
        <mxCell id="6z4Tuc7xeSrhAQ4H4yoB-25" value="" style="edgeStyle=orthogonalEdgeStyle;rounded=0;orthogonalLoop=1;jettySize=auto;html=1;strokeWidth=2;fontSize=14;" edge="1" parent="WIyWlLk6GJQsqaUBKTNV-1">
          <mxGeometry relative="1" as="geometry">
            <mxPoint x="590" y="334.65999999999997" as="targetPoint" />
            <mxPoint x="670" y="334.65999999999997" as="sourcePoint" />
          </mxGeometry>
        </mxCell>
        <mxCell id="6z4Tuc7xeSrhAQ4H4yoB-26" value="VR一体机运行各种UI自动化测试" style="rounded=1;whiteSpace=wrap;html=1;fontSize=14;glass=0;strokeWidth=2;shadow=0;" vertex="1" parent="WIyWlLk6GJQsqaUBKTNV-1">
          <mxGeometry x="480" y="60" width="220" height="40" as="geometry" />
        </mxCell>
        <mxCell id="6z4Tuc7xeSrhAQ4H4yoB-27" value="" style="edgeStyle=orthogonalEdgeStyle;rounded=0;orthogonalLoop=1;jettySize=auto;html=1;strokeWidth=2;fontSize=14;entryX=0.5;entryY=0;entryDx=0;entryDy=0;" edge="1" parent="WIyWlLk6GJQsqaUBKTNV-1" target="7S5ToUFaWnlVdSLbU037-10">
          <mxGeometry relative="1" as="geometry">
            <mxPoint x="589.71" y="100" as="sourcePoint" />
            <mxPoint x="590" y="160" as="targetPoint" />
          </mxGeometry>
        </mxCell>
        <mxCell id="6z4Tuc7xeSrhAQ4H4yoB-28" value="测试结束，产出结果" style="rounded=1;whiteSpace=wrap;html=1;fontSize=14;glass=0;strokeWidth=2;shadow=0;" vertex="1" parent="WIyWlLk6GJQsqaUBKTNV-1">
          <mxGeometry x="530" y="730" width="140" height="40" as="geometry" />
        </mxCell>
        <mxCell id="6z4Tuc7xeSrhAQ4H4yoB-29" value="" style="endArrow=classic;html=1;rounded=0;exitX=0.5;exitY=1;exitDx=0;exitDy=0;entryX=0.5;entryY=0;entryDx=0;entryDy=0;strokeWidth=2;fontSize=14;" edge="1" parent="WIyWlLk6GJQsqaUBKTNV-1" source="7S5ToUFaWnlVdSLbU037-15" target="6z4Tuc7xeSrhAQ4H4yoB-28">
          <mxGeometry width="50" height="50" relative="1" as="geometry">
            <mxPoint x="600" y="570" as="sourcePoint" />
            <mxPoint x="520" y="630" as="targetPoint" />
          </mxGeometry>
        </mxCell>
        <mxCell id="6z4Tuc7xeSrhAQ4H4yoB-30" value="" style="endArrow=classic;html=1;rounded=0;exitX=0.5;exitY=1;exitDx=0;exitDy=0;strokeWidth=2;fontSize=14;entryX=0.5;entryY=0;entryDx=0;entryDy=0;" edge="1" parent="WIyWlLk6GJQsqaUBKTNV-1" source="7S5ToUFaWnlVdSLbU037-17" target="6z4Tuc7xeSrhAQ4H4yoB-28">
          <mxGeometry width="50" height="50" relative="1" as="geometry">
            <mxPoint x="520" y="690" as="sourcePoint" />
            <mxPoint x="590" y="730" as="targetPoint" />
          </mxGeometry>
        </mxCell>
        <mxCell id="6z4Tuc7xeSrhAQ4H4yoB-36" value="" style="endArrow=none;dashed=1;html=1;rounded=0;fontSize=17;" edge="1" parent="WIyWlLk6GJQsqaUBKTNV-1">
          <mxGeometry width="50" height="50" relative="1" as="geometry">
            <mxPoint x="100" y="375" as="sourcePoint" />
            <mxPoint x="100" y="450" as="targetPoint" />
          </mxGeometry>
        </mxCell>
        <mxCell id="6z4Tuc7xeSrhAQ4H4yoB-37" value="" style="endArrow=none;dashed=1;html=1;rounded=0;fontSize=17;" edge="1" parent="WIyWlLk6GJQsqaUBKTNV-1">
          <mxGeometry width="50" height="50" relative="1" as="geometry">
            <mxPoint x="360" y="450" as="sourcePoint" />
            <mxPoint x="360" y="375" as="targetPoint" />
          </mxGeometry>
        </mxCell>
      </root>
    </mxGraphModel>
  </diagram>
</mxfile>
